FILE "Surgical Strike (1995)(Code Monkeys - Sega)(JP).img" BINARY
  TRACK 01 MODE1/2352
    INDEX 01 00:00:00
  TRACK 02 AUDIO
    PREGAP 00:02:00
    INDEX 01 42:18:21
  TRACK 03 AUDIO
    INDEX 00 46:21:18
    INDEX 01 46:23:18
